PathFileType	4	(X/Y/Z)	Patient4_TMGait_0pt4_02_right_06.trc.trc
DataRate	CameraRate	NumFrames	NumMarkers	Units	OrigDataRate	OrigDataStartFrame	OrigNumFrames
74.074074074074	74.074074074074	5	33	mm	74.074074074074	18	       141
Frame#	Time	Sacral			L.Shoulder			Chest			R.Shoulder			Neck			R.ASIS			L.ASIS			R.Thigh.Superior			R.Thigh.Lateral			R.Thigh.Inferior			R.Patella			L.Thigh.Superior			L.Thigh.Lateral			L.Thigh.Inferior			L.Patella			L.Shank.Superior			L.Shank.Lateral			L.Shank.Inferior			R.Shank.Superior			R.Shank.Lateral			R.Shank.Inferior			R.Heel			R.Midfoot.Superior			R.Midfoot.Lateral			R.Toe			L.Heel			L.Midfoot.Lateral			L.Midfoot.Superior			L.Toe			L.Elbow			L.Wrist			R.Elbow			R.Wrist			
		X1	Y1	Z1	X2	Y2	Z2	X3	Y3	Z3	X4	Y4	Z4	X5	Y5	Z5	X6	Y6	Z6	X7	Y7	Z7	X8	Y8	Z8	X9	Y9	Z9	X10	Y10	Z10	X11	Y11	Z11	X12	Y12	Z12	X13	Y13	Z13	X14	Y14	Z14	X15	Y15	Z15	X16	Y16	Z16	X17	Y17	Z17	X18	Y18	Z18	X19	Y19	Z19	X20	Y20	Z20	X21	Y21	Z21	X22	Y22	Z22	X23	Y23	Z23	X24	Y24	Z24	X25	Y25	Z25	X26	Y26	Z26	X27	Y27	Z27	X28	Y28	Z28	X29	Y29	Z29	X30	Y30	Z30	X31	Y31	Z31	X32	Y32	Z32	X33	Y33	Z33	

18	7.619500000000	839.181929696137	1004.446116909309	405.536674962725	1043.147704566621	1430.881165835016	226.133150090145	1119.455602142580	1370.310903957893	403.425949519290	1010.290940365694	1448.711853620506	559.800111380216	1001.765121306066	1497.502502456378	377.359709352945	1056.492569791154	950.855135940305	549.143670706389	1069.908610610365	963.543258259483	272.269998672685	1119.916063517873	763.028641718289	532.596859405659	1063.573209450309	648.183854375683	606.956596704211	1152.527029259298	600.638370393562	532.190959412797	1180.297354612040	524.658185116206	551.559603017591	1083.138919680453	739.747937736516	305.301316369608	975.787306165940	635.852820389581	240.417096856451	1041.595399859803	548.650007715730	306.885976831863	1029.867667241460	482.763582626929	316.826925109235	1000.936878367087	413.861526179141	309.866764372985	903.762282641370	303.031070914777	263.081423471450	950.660224051679	191.470253175368	337.867365376927	1170.785852402828	441.777911283342	565.441433980359	1126.165670521331	326.585258114008	631.654415529988	1205.707950867265	245.923954123647	585.369421172096	1131.811899628130	53.370352397705	560.192445742733	1290.728748413688	134.600393719810	601.631391413346	1216.479967329668	54.029391684147	633.276829037734	1416.578736282447	103.651200580864	625.161458578049	818.813880313695	39.236631414053	389.709841613480	889.117198390275	35.046923785754	305.850110488466	973.794340809393	95.662270439238	329.169260481484	1101.142498477556	42.434755135095	295.957801484754	1095.457454376855	1093.727402220386	87.381535918262	1339.040294529443	1004.336335104428	107.343599116842	874.147234656972	1130.862410906652	668.970534791422	868.301876740622	869.606219084237	687.776354132893	
19	7.633000000000	839.851014562937	1003.291500307497	406.591630397678	1042.295591398651	1430.045679238297	227.389062568982	1118.390570143332	1370.201638398908	405.002145710191	1008.421428679997	1448.328399584550	560.957736565339	1000.348687808859	1496.758927122869	378.351746606418	1056.893038630078	949.753046307791	550.801082850892	1070.995625565381	963.354115032684	273.860819756926	1121.087472418315	762.141019151412	534.144269066163	1063.586511188722	646.215515435264	606.752914939212	1153.433317174724	599.553144074570	532.821102868929	1180.558779091701	522.834293147257	551.521959492429	1081.992083270476	738.814959644461	306.313039258773	973.371335201459	635.976820239265	241.035770969712	1038.034089280249	548.058431413928	307.451012714862	1025.711211833805	482.304574931460	317.131337444970	996.468118104938	413.737823242150	310.071104957726	898.757329599783	303.366043695502	263.299699750656	945.544148979128	191.469826399062	337.764318269696	1169.789711274100	439.118939517266	564.467504778235	1122.775398490559	324.427939899369	629.538881197596	1200.931927766935	242.798008955862	583.270081872727	1123.860512296666	52.148379266093	556.593779912659	1283.382149793647	130.501389191150	599.287193223469	1207.690041423324	51.687026482162	630.545513867857	1408.381651859232	97.746352765695	624.256752785111	813.375473384914	39.280653510087	389.668430509649	883.681298748440	35.022559691654	305.832357027708	968.373030928265	95.641287426950	329.106562400265	1095.690238926036	42.432125487166	295.973642326195	1096.472938592443	1092.689281850955	89.720223045230	1340.578748792455	1004.773456185150	109.186396741584	873.936943341447	1129.893079574517	670.416272770234	871.065680474456	868.498205207605	688.761960972703	
20	7.646500000000	840.656812527305	1002.023777747865	407.938506080292	1041.312274454173	1429.165905419323	228.838327802914	1117.313043958319	1370.072322738084	406.729894810223	1006.543991632807	1447.826161414021	562.326824946702	998.864790393512	1495.926827616231	379.566158325221	1057.621521089142	948.561843610952	552.526783724590	1072.075236716717	963.097868892872	275.539070137105	1122.935340134889	761.268775990375	535.593506108798	1064.301143208134	644.214798288194	606.357751781995	1155.042226777940	598.493876681845	533.284283412398	1181.361918354369	520.675123862691	551.186782225834	1081.049983476235	737.820085678708	307.221723934204	971.203142605593	636.017193839601	241.744336514631	1034.890288771729	547.412156134504	308.003509828771	1022.029829570976	481.719694432543	317.475128559985	992.380707419156	413.487850185397	310.338579981681	894.022513017598	303.694325306478	263.579418180934	940.525085751211	191.393686819717	337.696636781607	1168.820313298260	435.937638508769	563.140740907051	1118.732031540154	322.126429762933	627.252042312875	1194.670894681764	238.948619227075	580.791422649560	1112.936550847302	50.847025360242	553.061667125158	1273.591326251359	125.457423999266	596.452855647817	1196.073459373632	49.008996647552	627.733271007982	1397.641839649483	90.220947117906	622.716075004406	807.946016541133	39.313784314023	389.619572091684	878.251316214330	34.994368837962	305.815367710521	962.950277611912	95.613102050259	329.051820474782	1090.240662571951	42.414403969536	295.985480691744	1097.099105719824	1091.585747131118	92.155979484658	1341.521492746919	1004.474990929370	111.070479720767	874.141493348994	1128.618309690451	672.200699669679	875.087991340846	867.132998652666	690.199444325628	
21	7.660000000000	841.587943222926	1000.664201374030	409.582120536961	1040.206390188758	1428.250232201359	230.492637452196	1116.255885789587	1369.912110552981	408.606293625752	1004.725409899918	1447.200498409337	563.926333629591	997.352521620274	1495.017390052809	381.028600481795	1058.687305308583	947.296989811072	554.291932112356	1073.133752731781	962.777086140644	277.283945761606	1125.279784162713	760.295610623914	536.910633295085	1065.497443310283	642.183747189373	605.814608516345	1157.053971098250	597.371251153744	533.537186994785	1182.411720568859	518.219695082030	550.480346066398	1080.354018556976	736.766077965828	308.013526008319	969.335729906529	635.961955692945	242.558450523175	1032.228690423626	546.705528558836	308.561986902048	1018.894201863066	480.988632394877	317.884632947077	988.735854510552	413.088034022549	310.693647420414	889.604040618054	304.006951225255	263.937538806650	935.619395930011	191.228857207712	337.684770357565	1167.791713074854	432.374726005659	561.511900082229	1114.301402220089	319.723658577689	624.938969873896	1187.400474169544	234.616817382068	578.048172549332	1100.042814546048	49.458230903587	549.855967277895	1262.201789955807	119.928762925698	593.233686584785	1182.716740580851	46.220861968724	625.008755079753	1385.327679209850	81.865841444101	620.489702982775	802.525174415567	39.337408980077	389.563935492602	872.828661388476	34.966265815341	305.801467980949	957.526978329521	95.579559455233	329.012592992090	1084.795907522292	42.373712617475	295.991694396512	1097.336642942042	1090.422541599601	94.688512615018	1341.869368846383	1003.417842939456	112.972509558959	874.749797709907	1127.074913694791	674.316255008954	880.278080337431	865.578081658669	692.080859350358	
22	7.673500000000	842.627076357259	999.246967145929	411.515676263485	1038.988409101056	1427.322362705776	232.359605474913	1115.253199252326	1369.721607952170	410.623207963477	1003.039027490376	1446.460523218901	565.771855841212	995.854716630907	1494.057385891554	382.761508284203	1060.081779669631	945.996438971351	556.068423245411	1074.159503625585	962.400862568247	279.078813585582	1127.923703626343	759.148487981492	538.059609827505	1066.964574469616	640.158481437767	605.179182713925	1159.168385503381	596.140458791166	533.536211315252	1183.437293134754	515.553344929787	549.375218823407	1079.940588017256	735.667526638463	308.703486495067	967.821818485466	635.806447570068	243.499969310523	1030.104076214143	545.940427375908	309.160531104836	1016.363705197878	480.100041927582	318.392651763714	985.582666253157	412.527253184130	311.164820603816	885.538515390115	304.304477008714	264.394900427146	930.843103074111	190.972304671880	337.748520103003	1166.644054727254	428.617027263300	559.668970825330	1109.765578395340	317.296020119913	622.746471803921	1179.637084329574	230.090728113372	575.186303218521	1086.242464697532	48.016727522442	547.180625994121	1250.087554831739	114.405044133990	589.796525693620	1168.721364009731	43.560332259406	622.533702159573	1372.416473223303	73.504397709018	617.666961568880	797.111591525288	39.362563940459	389.502425361406	867.415286709264	34.946557571890	305.793383211500	952.107521842173	95.545574498414	328.994762116942	1079.359256501657	42.300715783683	295.990046027656	1097.188222179897	1089.215891227245	97.325868481583	1341.614697429104	1001.580806165592	114.869178710098	875.775290818283	1125.305859675211	676.752657166448	886.545554931120	863.907471490591	694.389786246044	
